# xmcd
#
# Track frame offsets:
#	150
#	20145
#	34962
#	54857
#	69467
#	86165
#	104750
#	124050
#	139345
#	157587
#	174737
#	197327
#	211492
#	230377
#	245222
#
# Disc length: 3501 seconds
#
# Revision: 1
# Processed by: cddbd v1.5.1PL0 Copyright (c) Steve Scherf et al.
# Submitted via: audiograbber 1.83.01
#
DISCID=d70dab0f
DTITLE=Sound Choice - Sc8728
DYEAR=2003
DGENRE=Country
TTITLE0=McClain, Charly - Dancing Your Memory Away
TTITLE1=Harris, Emmylou - One Of These Days
TTITLE2=Judds, The - Give A Little Love
TTITLE3=Haggard, Merle - Big City
TTITLE4=Haggard, Merle - Ramblin' Fever
TTITLE5=Judds, The - Cry Myself To Sleep
TTITLE6=Gosdin, Ver - That Just About Does It
TTITLE7=Restless Heart - Why Does It Have To Be (Wrong Or Right)
TTITLE8=Seals, Dan - Big Wheels In The Moonlight
TTITLE9=Morris, Gary - Love She Found In Me, The
TTITLE10=Rogers, Kenny - Buried Treasure
TTITLE11=Jennings, Waylon - I'm A Ramblin' Man
TTITLE12=Parton, Dolly - Starting Over Again
TTITLE13=Gosdin, Vern - Is It Raining At Your House
TTITLE14=Haggard, Merle - Daddy Frank (The Guitar Man)
EXTD=
EXTT0=
EXTT1=
EXTT2=
EXTT3=
EXTT4=
EXTT5=
EXTT6=
EXTT7=
EXTT8=
EXTT9=
EXTT10=
EXTT11=
EXTT12=
EXTT13=
EXTT14=
PLAYORDER=
